<svg xmlns="http://www.w3.org/2000/svg" width="20" height="19" viewBox="0 0 20 19" fill="none">
  <path d="M10.4261 15.0796C10.531 15.1841 10.6142 15.3083 10.671 15.445C10.7278 15.5818 10.757 15.7284 10.757 15.8764C10.757 16.0245 10.7278 16.1711 10.671 16.3079C10.6142 16.4446 10.531 16.5688 10.4261 16.6733L9.86922 17.2302C8.81399 18.2854 7.38279 18.8783 5.89047 18.8783C4.39815 18.8783 2.96695 18.2854 1.91172 17.2302C0.856494 16.175 0.263672 14.7438 0.263672 13.2514C0.263672 11.7591 0.856494 10.3279 1.91172 9.2727L4.17297 7.01239C5.18687 5.99599 6.55101 5.40572 7.986 5.3625C9.42098 5.31927 10.8182 5.82636 11.8914 6.77989C12.0022 6.87838 12.0925 6.99773 12.1572 7.13113C12.2219 7.26452 12.2597 7.40935 12.2684 7.55734C12.2771 7.70534 12.2565 7.8536 12.2079 7.99366C12.1594 8.13372 12.0837 8.26283 11.9852 8.37364C11.8867 8.48444 11.7673 8.57476 11.6339 8.63944C11.5005 8.70411 11.3557 8.74188 11.2077 8.75059C11.0597 8.75929 10.9115 8.73876 10.7714 8.69017C10.6313 8.64158 10.5022 8.56588 10.3914 8.46739C9.74783 7.89582 8.91019 7.59174 8.04983 7.61736C7.18947 7.64298 6.3714 7.99635 5.76297 8.6052L3.5036 10.8627C2.87056 11.4957 2.51492 12.3543 2.51492 13.2496C2.51492 14.1448 2.87056 15.0034 3.5036 15.6364C4.13664 16.2695 4.99522 16.6251 5.89047 16.6251C6.78573 16.6251 7.64431 16.2695 8.27735 15.6364L8.83422 15.0796C8.93871 14.975 9.06278 14.892 9.19935 14.8354C9.33593 14.7788 9.48232 14.7496 9.63016 14.7496C9.778 14.7496 9.9244 14.7788 10.061 14.8354C10.1975 14.892 10.3216 14.975 10.4261 15.0796ZM17.3711 1.76707C16.315 0.713467 14.8841 0.121765 13.3923 0.121765C11.9006 0.121765 10.4697 0.713467 9.4136 1.76707L8.85672 2.32395C8.64538 2.53529 8.52665 2.82194 8.52665 3.12082C8.52665 3.41971 8.64538 3.70635 8.85672 3.9177C9.06807 4.12904 9.35471 4.24778 9.6536 4.24778C9.95249 4.24778 10.2391 4.12904 10.4505 3.9177L11.0073 3.36082C11.6404 2.72779 12.499 2.37215 13.3942 2.37215C14.2895 2.37215 15.1481 2.72779 15.7811 3.36082C16.4141 3.99386 16.7698 4.85245 16.7698 5.7477C16.7698 6.64295 16.4141 7.50154 15.7811 8.13457L13.5208 10.3958C12.9118 11.0044 12.0933 11.3573 11.2327 11.3822C10.3721 11.4071 9.53457 11.1022 8.89141 10.5299C8.78061 10.4314 8.65149 10.3557 8.51143 10.3071C8.37137 10.2585 8.22311 10.238 8.07512 10.2467C7.92713 10.2554 7.7823 10.2932 7.6489 10.3578C7.5155 10.4225 7.39615 10.5128 7.29766 10.6236C7.19917 10.7344 7.12347 10.8636 7.07488 11.0036C7.02628 11.1437 7.00575 11.2919 7.01446 11.4399C7.02317 11.5879 7.06094 11.7328 7.12561 11.8661C7.19029 11.9995 7.28061 12.1189 7.39141 12.2174C8.46389 13.1707 9.86016 13.6781 11.2945 13.6358C12.7288 13.5934 14.0927 13.0045 15.107 11.9896L17.3683 9.72926C18.4231 8.67343 19.0159 7.24216 19.0164 5.74969C19.0169 4.25722 18.4252 2.82553 17.3711 1.76895V1.76707Z" fill="white"/>
</svg>