<svg width="17" height="16" viewBox="0 0 17 16" fill="none" xmlns="http://www.w3.org/2000/svg">
<g id="country-icon">
<mask id="mask0_2175_6180" style="mask-type:luminance" maskUnits="userSpaceOnUse" x="-4" y="-1" width="25" height="18">
<g id="Group">
<path id="Vector" d="M-3.48145 -0.234375H20.1617V16.2344H-3.48145V-0.234375Z" fill="white"/>
</g>
</mask>
<g mask="url(#mask0_2175_6180)">
<path id="Vector_2" fill-rule="evenodd" clip-rule="evenodd" d="M-3.48145 -0.234375V16.2344H20.1617V-0.234375H-3.48145Z" fill="#2E42A5"/>
<g id="Mask group">
<mask id="mask1_2175_6180" style="mask-type:luminance" maskUnits="userSpaceOnUse" x="-4" y="-1" width="25" height="18">
<g id="Group_2">
<path id="Vector_3" fill-rule="evenodd" clip-rule="evenodd" d="M-3.48145 -0.234375V16.2344H20.1617V-0.234375H-3.48145Z" fill="white"/>
</g>
</mask>
<g mask="url(#mask1_2175_6180)">
<g id="Group_3">
<g id="Mask group_2">
<mask id="mask2_2175_6180" style="mask-type:luminance" maskUnits="userSpaceOnUse" x="-4" y="-1" width="25" height="18">
<g id="Group_4">
<path id="Vector_4" d="M-3.48145 -0.234375H20.1617V16.2344H-3.48145V-0.234375Z" fill="white"/>
</g>
</mask>
<g mask="url(#mask2_2175_6180)">
<g id="Group_5">
<path id="Vector_5" d="M-6.11279 15.0561L-0.910057 17.0996L20.281 1.98565L23.0253 -1.05111L17.4618 -1.73413L8.81845 4.77892L1.86143 9.16721L-6.11279 15.0561Z" fill="white"/>
<path id="Vector_6" d="M-5.39844 16.4889L-2.74789 17.6747L22.042 -1.33228H18.3203L-5.39844 16.4889Z" fill="#E98080"/>
<path id="Vector_7" d="M22.7954 15.0561L17.5926 17.0996L-3.59845 1.98565L-6.34277 -1.05111L-0.779191 -1.73413L7.86412 4.77892L14.8211 9.16721L22.7954 15.0561Z" fill="white"/>
<path id="Vector_8" d="M22.6182 16.0817L19.9677 17.2675L9.41193 9.12969L6.28232 8.2204L-6.60645 -1.04272H-2.88476L9.9968 8.00055L13.4184 9.09085L22.6182 16.0817Z" fill="#E98080"/>
<path id="Vector_9" fill-rule="evenodd" clip-rule="evenodd" d="M11.135 -1.60913H5.55268V5.25287H-4.93506V10.7425H5.55268V17.6045H11.135V10.7425H21.6635V5.25287H11.135V-1.60913Z" fill="#E98080"/>
<g id="Mask group_3">
<mask id="mask3_2175_6180" style="mask-type:luminance" maskUnits="userSpaceOnUse" x="-5" y="-2" width="27" height="20">
<g id="Group_6">
<path id="Vector_10" fill-rule="evenodd" clip-rule="evenodd" d="M11.1321 -1.61133H5.54976V5.25068H-4.93799V10.7403H5.54976V17.6023H11.1321V10.7403H21.6606V5.25068H11.1321V-1.61133Z" fill="white"/>
</g>
</mask>
<g mask="url(#mask3_2175_6180)">
<path id="Vector_11" d="M5.5504 -1.60831V-2.98071H4.0727V-1.60831H5.5504ZM11.1328 -1.60831H12.6105V-2.98071H11.1328V-1.60831ZM5.5504 5.25369V6.62609H7.0281V5.25369H5.5504ZM-4.93734 5.25369V3.88129H-6.41504V5.25369H-4.93734ZM-4.93734 10.7433H-6.41504V12.1157H-4.93734V10.7433ZM5.5504 10.7433H7.0281V9.37089H5.5504V10.7433ZM5.5504 17.6053H4.0727V18.9777H5.5504V17.6053ZM11.1328 17.6053V18.9777H12.6105V17.6053H11.1328ZM11.1328 10.7433V9.37089H9.65507V10.7433H11.1328ZM21.6612 10.7433V12.1157H23.1389V10.7433H21.6612ZM21.6612 5.25369H23.1389V3.88129H21.6612V5.25369ZM11.1328 5.25369H9.65507V6.62609H11.1328V5.25369ZM5.5504 -0.235912H11.1328V-2.98071H5.5504V-0.235912ZM7.0281 5.25369V-1.60831H4.0727V5.25369H7.0281ZM-4.93734 6.62609H5.5504V3.88129H-4.93734V6.62609ZM-3.45965 10.7433V5.25369H-6.41504V10.7433H-3.45965ZM5.5504 9.37089H-4.93734V12.1157H5.5504V9.37089ZM7.0281 17.6053V10.7433H4.0727V17.6053H7.0281ZM11.1328 16.2329H5.5504V18.9777H11.1328V16.2329ZM9.65507 10.7433V17.6053H12.6105V10.7433H9.65507ZM21.6612 9.37089H11.1328V12.1157H21.6612V9.37089ZM20.1835 5.25369V10.7433H23.1389V5.25369H20.1835ZM11.1328 6.62609H21.6612V3.88129H11.1328V6.62609ZM9.65507 -1.60831V5.25369H12.6105V-1.60831H9.65507Z" fill="white"/>
</g>
</g>
</g>
</g>
</g>
</g>
</g>
</g>
</g>
</g>
</svg>
