<svg xmlns="http://www.w3.org/2000/svg" width="18" height="19" viewBox="0 0 18 19" fill="none">
  <path d="M8.7876 0.712402C3.94217 0.712402 0 4.65457 0 9.5C0 14.3454 3.94217 18.2876 8.7876 18.2876C13.633 18.2876 17.5752 14.3454 17.5752 9.5C17.5752 4.65457 13.633 0.712402 8.7876 0.712402ZM14.8291 13.5558H12.9186C12.8594 13.5557 12.8013 13.54 12.7501 13.5103C12.6988 13.4807 12.6563 13.4381 12.6267 13.3868L11.9448 12.2174C11.8999 12.1409 11.8869 12.0499 11.9085 11.9639L12.5363 9.4324C12.5489 9.3814 12.5732 9.33403 12.6073 9.29406C12.6414 9.25409 12.6843 9.22262 12.7327 9.20215L13.9199 8.6994C13.9779 8.6748 14.0416 8.66691 14.1039 8.67661C14.1662 8.68632 14.2245 8.71323 14.2722 8.75432L16.031 10.2676C16.0744 10.305 16.1076 10.3527 16.1274 10.4063C16.1473 10.46 16.1532 10.5178 16.1447 10.5744C15.999 11.5737 15.6499 12.5325 15.1189 13.3915C15.0889 13.4416 15.0464 13.483 14.9956 13.5118C14.9448 13.5406 14.8875 13.5558 14.8291 13.5558ZM3.6553 8.70278L4.84247 9.20553C4.89086 9.226 4.93381 9.25747 4.96791 9.29744C5.00202 9.33741 5.02633 9.38478 5.03893 9.43578L5.66673 11.9673C5.68834 12.0533 5.67529 12.1443 5.6304 12.2208L4.94852 13.3868C4.91892 13.4381 4.87637 13.4807 4.82514 13.5103C4.7739 13.54 4.71578 13.5557 4.65658 13.5558H2.74612C2.68834 13.5559 2.63152 13.5411 2.58107 13.5129C2.53063 13.4847 2.48826 13.4441 2.45799 13.3948C1.92699 12.5359 1.57787 11.5771 1.43221 10.5777C1.42365 10.5212 1.42958 10.4634 1.44946 10.4097C1.46933 10.3561 1.5025 10.3084 1.54586 10.271L3.30464 8.7577C3.35225 8.71693 3.41026 8.69021 3.47218 8.68051C3.53411 8.67081 3.59751 8.67852 3.6553 8.70278ZM14.5105 5.01706L13.7471 7.18776C13.7318 7.23213 13.7073 7.27281 13.6754 7.30721C13.6435 7.34162 13.6047 7.36899 13.5616 7.3876L12.3119 7.91697C12.2546 7.94123 12.1916 7.94917 12.1301 7.93993C12.0685 7.93069 12.0107 7.90461 11.963 7.86458L9.58609 5.87089C9.54811 5.83947 9.51746 5.80012 9.49629 5.7556C9.47513 5.71108 9.46396 5.66247 9.46357 5.61318V4.19449C9.4636 4.1389 9.47734 4.08418 9.50358 4.03517C9.52981 3.98617 9.56773 3.94439 9.61397 3.91354L11.4235 2.70778C11.4707 2.67626 11.5251 2.65714 11.5816 2.6522C11.6382 2.64725 11.6951 2.65663 11.7471 2.67947C12.7883 3.13358 13.7122 3.81902 14.4488 4.68372C14.4876 4.72893 14.5137 4.78356 14.5245 4.8421C14.5353 4.90063 14.5305 4.96099 14.5105 5.01706ZM6.15132 2.70778L7.96123 3.91354C8.00747 3.94439 8.04538 3.98617 8.07162 4.03517C8.09785 4.08418 8.1116 4.1389 8.11163 4.19449V5.61318C8.11163 5.66255 8.10081 5.71132 8.07993 5.75607C8.05906 5.80081 8.02863 5.84044 7.9908 5.87216L5.61392 7.86585C5.56623 7.90588 5.5084 7.93195 5.44682 7.9412C5.38524 7.95044 5.3223 7.94249 5.26495 7.91823L4.01357 7.3876C3.9702 7.36923 3.93115 7.34201 3.89892 7.30767C3.86669 7.27333 3.84199 7.23263 3.82641 7.18819L3.06298 5.01748C3.04315 4.96121 3.03856 4.90068 3.04969 4.84206C3.06082 4.78344 3.08727 4.72881 3.12636 4.68372C3.86337 3.81815 4.78812 3.1321 5.83023 2.67778C5.88201 2.65563 5.93851 2.64678 5.99458 2.65202C6.05066 2.65726 6.10454 2.67642 6.15132 2.70778ZM6.88263 16.5423L6.04908 14.443C6.03002 14.3953 6.02209 14.3439 6.0259 14.2926C6.0297 14.2414 6.04514 14.1917 6.07105 14.1473L6.71195 13.0488C6.74155 12.9976 6.78409 12.955 6.83533 12.9253C6.88656 12.8957 6.94469 12.88 7.00388 12.8798H10.5713C10.6305 12.88 10.6886 12.8957 10.7399 12.9253C10.7911 12.955 10.8336 12.9976 10.8632 13.0488L11.5046 14.1473C11.5305 14.1916 11.5461 14.2413 11.5499 14.2926C11.5538 14.3438 11.546 14.3953 11.527 14.443L10.6993 16.5415C10.6791 16.5928 10.6466 16.6384 10.6047 16.6742C10.5628 16.7101 10.5127 16.7352 10.4589 16.7472C9.36068 16.9993 8.21959 16.9993 7.12133 16.7472C7.06792 16.735 7.01827 16.7099 6.97669 16.6742C6.93511 16.6385 6.90283 16.5933 6.88263 16.5423Z" fill="white"/>
</svg>