<svg width="171" height="50" viewBox="0 0 171 50" fill="none" xmlns="http://www.w3.org/2000/svg">
<rect x="5.68628" y="15" width="20" height="20" rx="5" fill="white"/>
<path d="M9.45288 29.7795L13.5463 20.2203H21.9012V21.8867H17.4811V24.1644H21.5698V25.8307H17.4811V28.1132H21.9199V29.7795H15.46V22.2087H14.7926L11.6746 29.7795H9.45288ZM11.6466 27.5997V26.0221H16.6129V27.5997H11.6466Z" fill="black"/>
<path d="M42.5583 32L47.4351 19.2848H51.3642L56.241 32H52.3712L51.305 29.2951H47.4746L46.4282 32H42.5583ZM47.9682 26.6296H50.8114L49.3898 22.8979L47.9682 26.6296ZM57.6264 32V19.2848H61.3383V32H57.6264ZM63.1216 32V19.2848H70.111C71.4009 19.2848 72.3816 19.5875 73.0529 20.193C73.7242 20.7985 74.0598 21.6672 74.0598 22.7992C74.0598 23.4574 73.9348 24.0102 73.6847 24.4577C73.4477 24.9053 73.1318 25.2607 72.737 25.5239C73.2766 25.7345 73.7044 26.0438 74.0203 26.4519C74.3494 26.8468 74.5139 27.4391 74.5139 28.2289C74.5139 29.4267 74.1454 30.3547 73.4083 31.0128C72.6711 31.6709 71.6247 32 70.2689 32H63.1216ZM66.6952 24.359H69.104C70.0123 24.359 70.4664 23.951 70.4664 23.1349C70.4664 22.7268 70.3545 22.4175 70.1307 22.2069C69.9201 21.9963 69.545 21.891 69.0053 21.891H66.6952V24.359ZM66.6952 29.4135H69.262C69.7622 29.4135 70.1307 29.3082 70.3677 29.0976C70.6046 28.887 70.723 28.5382 70.723 28.0512C70.723 27.6431 70.6046 27.3338 70.3677 27.1232C70.1307 26.9126 69.7358 26.8073 69.183 26.8073H66.6952V29.4135ZM75.9051 32V19.2848H85.5403V22.1279H79.617V24.2011H84.8097V27.0837H79.617V29.1568H85.5403V32H75.9051ZM89.5059 32V22.049H85.9322V19.2848H96.7915V22.049H93.2178V32H89.5059ZM104.132 32.1974C101.868 32.1974 100.144 31.6446 98.9595 30.5389C97.7748 29.4201 97.1825 27.8274 97.1825 25.7609C97.1825 23.6285 97.7946 21.9831 99.0187 20.8248C100.243 19.6665 102.033 19.0873 104.389 19.0873C105.179 19.0873 105.89 19.1334 106.521 19.2255C107.166 19.3177 107.772 19.4559 108.338 19.6402V22.819C107.759 22.5952 107.16 22.4438 106.541 22.3649C105.923 22.2859 105.291 22.2464 104.646 22.2464C103.422 22.2464 102.5 22.5228 101.882 23.0756C101.276 23.6285 100.973 24.5236 100.973 25.7609C100.973 26.9192 101.237 27.755 101.763 28.2684C102.303 28.7817 103.093 29.0384 104.132 29.0384C104.475 29.0384 104.797 29.0186 105.1 28.9791C105.403 28.9265 105.686 28.8607 105.949 28.7817V26.9258H103.422V24.6354H109.049V31.0325C108.562 31.3353 107.91 31.6051 107.094 31.842C106.291 32.079 105.304 32.1974 104.132 32.1974ZM116.361 32.1974C115.177 32.1974 114.13 32.0066 113.222 31.6249C112.327 31.23 111.623 30.6574 111.109 29.9071C110.596 29.1437 110.339 28.2091 110.339 27.1035V19.2848H114.051V26.7086C114.051 28.2618 114.821 29.0384 116.361 29.0384C117.098 29.0384 117.664 28.8475 118.059 28.4658C118.454 28.0841 118.652 27.4983 118.652 26.7086V19.2848H122.364V27.1035C122.364 28.2091 122.107 29.1437 121.594 29.9071C121.093 30.6574 120.389 31.23 119.481 31.6249C118.586 32.0066 117.546 32.1974 116.361 32.1974ZM124.051 32V19.2848H130.665C131.705 19.2848 132.554 19.4756 133.212 19.8574C133.883 20.2391 134.384 20.7722 134.713 21.4566C135.042 22.1279 135.206 22.9111 135.206 23.8062C135.206 24.6618 134.989 25.4186 134.555 26.0768C134.133 26.7217 133.567 27.2153 132.857 27.5576C133.001 27.676 133.126 27.8208 133.232 27.9919C133.337 28.1499 133.456 28.3737 133.587 28.6632L135.048 32H131.178L129.836 28.9397C129.73 28.7027 129.599 28.5382 129.441 28.4461C129.296 28.3408 129.086 28.2881 128.809 28.2881H127.763V32H124.051ZM127.763 25.4449H129.717C130.257 25.4449 130.672 25.3067 130.961 25.0303C131.264 24.7407 131.415 24.3327 131.415 23.8062C131.415 22.6873 130.889 22.1279 129.836 22.1279H127.763V25.4449ZM142.507 32.1974C141.322 32.1974 140.276 32.0066 139.368 31.6249C138.473 31.23 137.768 30.6574 137.255 29.9071C136.742 29.1437 136.485 28.2091 136.485 27.1035V19.2848H140.197V26.7086C140.197 28.2618 140.967 29.0384 142.507 29.0384C143.244 29.0384 143.81 28.8475 144.205 28.4658C144.6 28.0841 144.797 27.4983 144.797 26.7086V19.2848H148.509V27.1035C148.509 28.2091 148.252 29.1437 147.739 29.9071C147.239 30.6574 146.535 31.23 145.626 31.6249C144.731 32.0066 143.692 32.1974 142.507 32.1974Z" fill="white"/>
</svg>
