<svg width="17" height="17" viewBox="0 0 17 17" fill="none" xmlns="http://www.w3.org/2000/svg">
<path d="M0.479024 16.6108C0.34203 16.5741 0.227047 16.4777 0.159371 16.3428C0.091694 16.2079 0.076867 16.0455 0.118151 15.8915L3.96954 1.51789C4.01036 1.36569 4.08592 1.22565 4.18869 1.11172C4.29146 0.997787 4.41785 0.913936 4.5553 0.868512C5.01432 0.71793 5.88292 0.624557 7.42025 1.03649C8.62152 1.35836 9.82204 2.25249 10.8813 3.04106C11.7343 3.67628 12.5399 4.27625 13.1517 4.44017C13.9399 4.64847 14.7671 4.67828 15.5849 4.52787C15.6845 4.5096 15.7851 4.51867 15.8779 4.55428C15.9707 4.58988 16.0527 4.65091 16.1166 4.73193C16.1806 4.81294 16.2245 4.91142 16.2443 5.01859C16.2642 5.12576 16.2595 5.23828 16.2307 5.34612L14.0965 13.3108C14.0586 13.452 13.9849 13.5802 13.8844 13.6798C13.784 13.7795 13.6612 13.8462 13.531 13.8718C13.2127 13.9348 12.0651 14.1114 10.6611 13.7352C9.88176 13.5264 8.97497 13.0056 8.01523 12.4538C6.93637 11.834 5.82094 11.193 4.77399 10.9125C3.5837 10.5935 2.92022 10.6329 2.61922 10.6896L1.15122 16.1683C1.10994 16.3224 1.01592 16.4555 0.889861 16.5385C0.7638 16.6215 0.616017 16.6475 0.479024 16.6108Z" fill="white"/>
</svg>
