<svg xmlns="http://www.w3.org/2000/svg" width="16" height="15" viewBox="0 0 16 15" fill="none">
  <path d="M8.34039 6.12988C9.12325 6.12988 9.87405 5.81889 10.4276 5.26533C10.9812 4.71176 11.2922 3.96096 11.2922 3.1781C11.2922 2.39524 10.9812 1.64444 10.4276 1.09088C9.87405 0.537309 9.12325 0.226318 8.34039 0.226318C7.55753 0.226318 6.80673 0.537309 6.25317 1.09088C5.6996 1.64444 5.38861 2.39524 5.38861 3.1781C5.38861 3.96096 5.6996 4.71176 6.25317 5.26533C6.80673 5.81889 7.55753 6.12988 8.34039 6.12988ZM3.54375 8.34372C4.03304 8.34372 4.50228 8.14935 4.84826 7.80337C5.19424 7.45739 5.38861 6.98814 5.38861 6.49886C5.38861 6.00957 5.19424 5.54032 4.84826 5.19434C4.50228 4.84836 4.03304 4.65399 3.54375 4.65399C3.05446 4.65399 2.58521 4.84836 2.23923 5.19434C1.89325 5.54032 1.69888 6.00957 1.69888 6.49886C1.69888 6.98814 1.89325 7.45739 2.23923 7.80337C2.58521 8.14935 3.05446 8.34372 3.54375 8.34372ZM14.9819 6.49886C14.9819 6.98814 14.7875 7.45739 14.4416 7.80337C14.0956 8.14935 13.6263 8.34372 13.137 8.34372C12.6478 8.34372 12.1785 8.14935 11.8325 7.80337C11.4865 7.45739 11.2922 6.98814 11.2922 6.49886C11.2922 6.00957 11.4865 5.54032 11.8325 5.19434C12.1785 4.84836 12.6478 4.65399 13.137 4.65399C13.6263 4.65399 14.0956 4.84836 14.4416 5.19434C14.7875 5.54032 14.9819 6.00957 14.9819 6.49886ZM8.34039 6.86783C9.31897 6.86783 10.2575 7.25657 10.9494 7.94852C11.6414 8.64048 12.0301 9.57898 12.0301 10.5576V14.9852H4.65067V10.5576C4.65067 9.57898 5.0394 8.64048 5.73136 7.94852C6.42332 7.25657 7.36182 6.86783 8.34039 6.86783ZM3.17477 10.5576C3.17477 10.0462 3.24857 9.55247 3.3873 9.08609L3.26185 9.09642C2.62934 9.16587 2.04473 9.46636 1.62012 9.94028C1.1955 10.4142 0.960772 11.0282 0.960938 11.6645V14.9852H3.17477V10.5576ZM15.7198 14.9852V11.6645C15.7199 11.0065 15.4689 10.3733 15.018 9.89413C14.567 9.41496 13.9503 9.12595 13.2935 9.08609C13.4315 9.55247 13.506 10.0462 13.506 10.5576V14.9852H15.7198Z" fill="white"/>
</svg>