<svg xmlns="http://www.w3.org/2000/svg" width="20" height="20" viewBox="0 0 20 20" fill="none">
  <path d="M9.69566 2.60103L8.7484 2.01929L8.56797 3.13578C8.28079 4.89874 7.10574 6.53687 5.80965 7.68804C3.27236 9.94259 2.71679 12.3929 3.50241 14.4155C4.2542 16.351 6.16224 17.6763 8.09886 17.8975L8.54692 17.9483C7.43878 17.2541 6.72759 15.6321 6.97568 14.4201C7.22077 13.2289 8.05676 12.1132 9.66258 11.0837L10.4723 10.5659L10.7745 11.4944C10.9527 12.043 11.2609 12.4838 11.5744 12.9315C11.7247 13.1472 11.8774 13.3653 12.0172 13.5972C12.5006 14.4024 12.6284 15.2977 12.3164 16.1862C12.0322 16.9937 11.5639 17.6286 10.9181 17.9807L11.6473 17.8975C13.4651 17.6902 14.7996 17.053 15.6664 15.9874C16.5257 14.931 16.8271 13.571 16.8271 12.1232C16.8271 10.7748 16.2866 9.38473 15.6491 8.22817C14.9018 6.87359 13.9267 5.74863 12.8622 4.65833C12.678 5.03589 12.6923 5.18845 12.3134 5.79486C11.8216 4.45553 10.898 3.32866 9.69566 2.60103Z" fill="#DC9F73"/>
</svg>