<svg xmlns="http://www.w3.org/2000/svg" width="16" height="16" viewBox="0 0 16 16" fill="none">
  <path d="M8.34039 6.52417C9.12325 6.52417 9.87405 6.21318 10.4276 5.65961C10.9812 5.10605 11.2922 4.35525 11.2922 3.57239C11.2922 2.78953 10.9812 2.03873 10.4276 1.48516C9.87405 0.931596 9.12325 0.620605 8.34039 0.620605C7.55753 0.620605 6.80673 0.931596 6.25317 1.48516C5.6996 2.03873 5.38861 2.78953 5.38861 3.57239C5.38861 4.35525 5.6996 5.10605 6.25317 5.65961C6.80673 6.21318 7.55753 6.52417 8.34039 6.52417ZM3.54375 8.73801C4.03304 8.73801 4.50228 8.54364 4.84826 8.19766C5.19424 7.85168 5.38861 7.38243 5.38861 6.89314C5.38861 6.40385 5.19424 5.93461 4.84826 5.58863C4.50228 5.24265 4.03304 5.04828 3.54375 5.04828C3.05446 5.04828 2.58521 5.24265 2.23923 5.58863C1.89325 5.93461 1.69888 6.40385 1.69888 6.89314C1.69888 7.38243 1.89325 7.85168 2.23923 8.19766C2.58521 8.54364 3.05446 8.73801 3.54375 8.73801ZM14.9819 6.89314C14.9819 7.38243 14.7875 7.85168 14.4416 8.19766C14.0956 8.54364 13.6263 8.73801 13.137 8.73801C12.6478 8.73801 12.1785 8.54364 11.8325 8.19766C11.4865 7.85168 11.2922 7.38243 11.2922 6.89314C11.2922 6.40385 11.4865 5.93461 11.8325 5.58863C12.1785 5.24265 12.6478 5.04828 13.137 5.04828C13.6263 5.04828 14.0956 5.24265 14.4416 5.58863C14.7875 5.93461 14.9819 6.40385 14.9819 6.89314ZM8.34039 7.26212C9.31897 7.26212 10.2575 7.65085 10.9494 8.34281C11.6414 9.03477 12.0301 9.97327 12.0301 10.9518V15.3795H4.65067V10.9518C4.65067 9.97327 5.0394 9.03477 5.73136 8.34281C6.42332 7.65085 7.36182 7.26212 8.34039 7.26212ZM3.17477 10.9518C3.17477 10.4404 3.24857 9.94676 3.3873 9.48038L3.26185 9.49071C2.62934 9.56016 2.04473 9.86065 1.62012 10.3346C1.1955 10.8085 0.960772 11.4225 0.960938 12.0588V15.3795H3.17477V10.9518ZM15.7198 15.3795V12.0588C15.7199 11.4008 15.4689 10.7676 15.018 10.2884C14.567 9.80924 13.9503 9.52023 13.2935 9.48038C13.4315 9.94676 13.506 10.4404 13.506 10.9518V15.3795H15.7198Z" fill="white"/>
</svg>