<svg width="27" height="33" viewBox="0 0 27 33" fill="none" xmlns="http://www.w3.org/2000/svg">
<g filter="url(#filter0_d_6426_38011)">
<path d="M22.0554 11.6465C21.5398 10.4862 20.7904 9.44481 19.854 8.58742L19.0812 7.87841C19.055 7.85499 19.0234 7.83838 18.9893 7.83002C18.9551 7.82166 18.9194 7.82181 18.8853 7.83046C18.8512 7.83912 18.8198 7.856 18.7938 7.87964C18.7677 7.90328 18.7479 7.93294 18.736 7.96604L18.3908 8.95653C18.1757 9.57791 17.78 10.2126 17.2197 10.8366C17.1826 10.8764 17.1401 10.8871 17.1109 10.8897C17.0816 10.8924 17.0365 10.8871 16.9967 10.8499C16.9595 10.818 16.9409 10.7702 16.9436 10.7224C17.0418 9.12382 16.5638 7.32076 15.5176 5.35836C14.6519 3.72789 13.449 2.45592 11.946 1.56899L10.8492 0.92371C10.7058 0.838735 10.5226 0.950265 10.5306 1.11756L10.589 2.39219C10.6288 3.26319 10.5279 4.03327 10.2889 4.67324C9.99684 5.45661 9.57727 6.18421 9.04086 6.83746C8.66756 7.29145 8.24446 7.70208 7.77951 8.06163C6.65971 8.92245 5.74917 10.0254 5.11607 11.288C4.48453 12.5616 4.15556 13.9639 4.15479 15.3854C4.15479 16.6388 4.40174 17.8524 4.89035 18.9969C5.36214 20.0988 6.04299 21.0989 6.89524 21.9418C7.75561 22.7916 8.75407 23.4607 9.86672 23.9255C11.0192 24.4088 12.2407 24.6531 13.5021 24.6531C14.7634 24.6531 15.9849 24.4088 17.1374 23.9281C18.2473 23.4661 19.2566 22.7924 20.1089 21.9445C20.9693 21.0947 21.6438 20.1016 22.1138 18.9995C22.6016 17.8582 22.8519 16.6294 22.8493 15.3881C22.8493 14.0922 22.5838 12.8335 22.0554 11.6465Z" fill="url(#paint0_radial_6426_38011)"/>
<path d="M21.5986 11.8499L21.5984 11.8495C21.1108 10.7521 20.402 9.76713 19.5163 8.95619L19.5159 8.95584L19.0648 8.54191L18.8633 9.12008C18.8632 9.12026 18.8632 9.12043 18.8631 9.1206C18.621 9.81968 18.1845 10.5105 17.5918 11.1707L17.5853 11.1778L17.5853 11.1778C17.4387 11.3348 17.2644 11.3778 17.1561 11.3877C17.0287 11.3992 16.8324 11.3757 16.663 11.2223C16.5051 11.0823 16.4339 10.8834 16.4443 10.6947L16.4445 10.6917C16.5353 9.21432 16.0951 7.50441 15.0764 5.59359L15.076 5.59283C14.2514 4.03978 13.1117 2.83754 11.6921 1.99978C11.692 1.99972 11.6919 1.99966 11.6918 1.99961L11.0543 1.62451L11.0885 2.3693L11.0885 2.36935C11.1306 3.28951 11.0255 4.12998 10.7573 4.84817C10.4457 5.68375 9.9983 6.45936 9.42728 7.15476L9.42707 7.15502C9.02999 7.63792 8.57994 8.07471 8.08538 8.45716L8.08424 8.45805C7.02453 9.27267 6.16279 10.3164 5.56352 11.5112C4.96654 12.7155 4.65556 14.0413 4.65479 15.3854L21.5986 11.8499ZM21.5986 11.8499C22.0984 12.9725 22.3493 14.1619 22.3493 15.3881L22.3493 15.3891C22.3518 16.5625 22.1152 17.7241 21.654 18.803L21.6539 18.8034C21.2093 19.8456 20.5717 20.7846 19.7575 21.5887L19.7563 21.59C18.95 22.3921 17.9952 23.0295 16.9453 23.4665L16.945 23.4666C15.8538 23.9217 14.6977 24.1531 13.5021 24.1531C12.3064 24.1531 11.1507 23.9217 10.0601 23.4644L10.0594 23.4641M21.5986 11.8499L10.0594 23.4641M10.0594 23.4641C9.00698 23.0245 8.06215 22.3916 7.24659 21.5861C6.44044 20.7887 5.79642 19.8427 5.3501 18.8003M10.0594 23.4641L5.3501 18.8003M5.3501 18.8003C4.88832 17.7186 4.65482 16.572 4.65479 15.3857L5.3501 18.8003Z" stroke="#D7B740"/>
</g>
<defs>
<filter id="filter0_d_6426_38011" x="0.154785" y="0.894531" width="26.6946" height="31.7578" filterUnits="userSpaceOnUse" color-interpolation-filters="sRGB">
<feFlood flood-opacity="0" result="BackgroundImageFix"/>
<feColorMatrix in="SourceAlpha" type="matrix" values="0 0 0 0 0 0 0 0 0 0 0 0 0 0 0 0 0 0 127 0" result="hardAlpha"/>
<feOffset dy="4"/>
<feGaussianBlur stdDeviation="2"/>
<feComposite in2="hardAlpha" operator="out"/>
<feColorMatrix type="matrix" values="0 0 0 0 0 0 0 0 0 0 0 0 0 0 0 0 0 0 0.25 0"/>
<feBlend mode="normal" in2="BackgroundImageFix" result="effect1_dropShadow_6426_38011"/>
<feBlend mode="normal" in="SourceGraphic" in2="effect1_dropShadow_6426_38011" result="shape"/>
</filter>
<radialGradient id="paint0_radial_6426_38011" cx="0" cy="0" r="1" gradientUnits="userSpaceOnUse" gradientTransform="translate(7.85414 20.3326) rotate(-20.082) scale(20.1849 15.8827)">
<stop stop-color="#DA4F4F"/>
<stop offset="1" stop-color="#FFB800"/>
</radialGradient>
</defs>
</svg>
