<svg xmlns="http://www.w3.org/2000/svg" width="16" height="19" viewBox="0 0 16 19" fill="none">
  <path d="M13.1463 17.6418C12.1458 18.6117 11.0534 18.4586 10.0018 17.9992C8.88901 17.5295 7.86807 17.5091 6.69399 17.9992C5.22383 18.6322 4.44792 18.4484 3.56991 17.6418C-1.41228 12.5065 -0.6772 4.68612 4.97881 4.40025C6.35708 4.47172 7.31676 5.15575 8.1233 5.217C9.32801 4.97198 10.4817 4.26753 11.7681 4.35941C13.3097 4.48193 14.4736 5.09449 15.2393 6.19711C12.0539 8.10627 12.8094 12.3023 15.7293 13.4764C15.1474 15.0078 14.3919 16.529 13.1361 17.6521L13.1463 17.6418ZM8.02121 4.339C7.86807 2.0623 9.71597 0.183769 11.8395 0C12.1356 2.63403 9.45053 4.59423 8.02121 4.339Z" fill="white"/>
</svg>