<svg width="44" height="44" viewBox="0 0 44 44" fill="none" xmlns="http://www.w3.org/2000/svg">
<ellipse cx="22.4766" cy="21.9917" rx="21.5" ry="22" fill="#363944"/>
<path fillRule="evenodd" clipRule="evenodd" d="M18.8779 16.8931C18.8779 15.8322 19.2994 14.8148 20.0495 14.0646C20.7996 13.3145 21.8171 12.8931 22.8779 12.8931C23.9388 12.8931 24.9562 13.3145 25.7064 14.0646C26.4565 14.8148 26.8779 15.8322 26.8779 16.8931C26.8779 17.9539 26.4565 18.9713 25.7064 19.7215C24.9562 20.4716 23.9388 20.8931 22.8779 20.8931C21.8171 20.8931 20.7996 20.4716 20.0495 19.7215C19.2994 18.9713 18.8779 17.9539 18.8779 16.8931ZM18.8779 22.8931C17.5518 22.8931 16.2801 23.4199 15.3424 24.3575C14.4047 25.2952 13.8779 26.567 13.8779 27.8931C13.8779 28.6887 14.194 29.4518 14.7566 30.0144C15.3192 30.577 16.0823 30.8931 16.8779 30.8931H28.8779C29.6736 30.8931 30.4366 30.577 30.9993 30.0144C31.5619 29.4518 31.8779 28.6887 31.8779 27.8931C31.8779 26.567 31.3511 25.2952 30.4135 24.3575C29.4758 23.4199 28.204 22.8931 26.8779 22.8931H18.8779Z" fill="white"/>
</svg>
