<svg xmlns="http://www.w3.org/2000/svg" width="19" height="19" viewBox="0 0 19 19" fill="none">
  <path d="M18.0956 7.57872C18.2 8.1788 18.2519 8.78683 18.251 9.39592C18.251 12.1161 17.2787 14.4161 15.5866 15.9729H15.5889C14.1092 17.3398 12.0751 18.131 9.66338 18.131C7.29216 18.131 5.01805 17.189 3.34134 15.5123C1.66462 13.8356 0.722656 11.5615 0.722656 9.19028C0.722656 6.81906 1.66462 4.54495 3.34134 2.86824C5.01805 1.19152 7.29216 0.249558 9.66338 0.249558C11.8826 0.224843 14.0256 1.05849 15.6447 2.57638L13.0922 5.12896C12.1692 4.2497 10.9379 3.76809 9.66338 3.78785C7.33097 3.78785 5.34948 5.36142 4.64317 7.48037C4.26933 8.59081 4.26933 9.79311 4.64317 10.9036H4.64652C5.35619 13.0192 7.33433 14.5927 9.66674 14.5927C10.8715 14.5927 11.9064 14.2843 12.7088 13.7389H12.7055C13.1715 13.4303 13.5701 13.0305 13.8773 12.5635C14.1844 12.0965 14.3937 11.5721 14.4925 11.022H9.66338V7.57984L18.0956 7.57872Z" fill="white"/>
</svg>