<svg xmlns="http://www.w3.org/2000/svg" width="21" height="19" viewBox="0 0 21 19" fill="none">
  <path d="M20.9235 1.79276L17.9259 17.2573L17.9123 17.2923C17.9102 17.2977 17.7715 17.6449 17.4423 17.9121C17.2254 18.0879 16.8914 18.193 16.5489 18.193C16.3079 18.1929 16.071 18.1424 15.845 18.0427L15.8059 18.0258L12.5462 15.507C12.3156 15.3289 12.0283 15.2307 11.7376 15.2307C11.4059 15.2307 11.0882 15.3545 10.8431 15.5792L9.07921 17.1969L9.0646 17.2084C9.06428 17.2084 8.84925 17.3636 8.57062 17.3636C8.49726 17.3636 8.42411 17.3527 8.35338 17.331L8.32258 17.3216C8.32258 17.3216 8.32048 17.3213 8.31827 17.321L8.60667 13.5717C8.66742 12.7826 9.01667 12.0435 9.58779 11.4957L13.5708 7.67528C13.9478 7.31362 13.4883 6.71476 13.0414 6.98529L5.96737 11.2669L1.91172 9.89123C1.84309 9.86265 1.6867 9.79128 1.52726 9.67683C1.20701 9.44802 1.03234 9.18064 0.992607 8.85861C0.963283 8.62855 1.05031 8.4031 1.14164 8.26815C1.25893 8.09484 1.39483 7.99416 1.487 7.93362C1.69731 7.78816 1.89585 7.70923 1.95187 7.68831L1.97068 7.68085C2.2471 7.56355 6.29076 5.84651 10.4018 4.10288L16.3386 1.58455L17.2515 1.19883C18.3044 0.75383 19.0238 0.449877 19.2612 0.352868L19.3045 0.336578C19.4555 0.277511 19.6829 0.197634 19.912 0.186808C19.9297 0.185967 19.9474 0.185547 19.9655 0.185547C20.1614 0.185547 20.3415 0.236521 20.5162 0.341307C20.7078 0.455552 20.8781 0.687931 20.9412 0.92031C21.007 1.16362 21.0015 1.44098 20.9235 1.79276Z" fill="white"/>
</svg>