<svg xmlns="http://www.w3.org/2000/svg" width="22" height="13" viewBox="0 0 22 13" fill="none">
  <path d="M21.6172 11.1321C21.5912 11.076 21.567 11.0295 21.5444 10.9922C21.1716 10.3207 20.4591 9.49654 19.4074 8.51939L19.3852 8.49701L19.3741 8.48604L19.3628 8.47479H19.3515C18.8742 8.01978 18.572 7.71384 18.4454 7.55721C18.2138 7.25883 18.1619 6.95681 18.2885 6.65079C18.3779 6.41958 18.7138 5.9313 19.2955 5.18528C19.6014 4.78992 19.8437 4.47305 20.0226 4.23431C21.3131 2.51867 21.8726 1.42235 21.701 0.944926L21.6343 0.833359C21.5895 0.766191 21.4739 0.704744 21.2877 0.648705C21.101 0.592784 20.8624 0.583536 20.5714 0.620804L17.3492 0.643062C17.297 0.624566 17.2225 0.62629 17.1254 0.648705C17.0284 0.671121 16.9799 0.682368 16.9799 0.682368L16.9238 0.710387L16.8793 0.744049C16.842 0.766308 16.8009 0.805457 16.7561 0.861417C16.7116 0.917182 16.6743 0.982625 16.6445 1.0572C16.2937 1.95973 15.8949 2.79886 15.4472 3.57455C15.1712 4.03708 14.9178 4.43793 14.6863 4.77734C14.4551 5.11663 14.2612 5.36661 14.1046 5.52685C13.9479 5.68724 13.8064 5.81574 13.6794 5.91281C13.5525 6.00991 13.4557 6.05094 13.3886 6.03593C13.3214 6.02093 13.2582 6.00603 13.1982 5.99114C13.0939 5.92397 13.0099 5.83263 12.9466 5.71702C12.8831 5.60142 12.8403 5.45592 12.8179 5.28063C12.7957 5.10522 12.7825 4.95435 12.7787 4.8275C12.7752 4.70081 12.7768 4.5216 12.7844 4.29039C12.7922 4.05907 12.7957 3.90255 12.7957 3.82049C12.7957 3.53701 12.8012 3.22934 12.8123 2.89742C12.8236 2.5655 12.8327 2.30251 12.8403 2.10877C12.8479 1.91482 12.8515 1.70964 12.8515 1.49332C12.8515 1.277 12.8383 1.10736 12.8123 0.984231C12.7866 0.86126 12.7471 0.741894 12.6951 0.626172C12.6428 0.510568 12.5662 0.421142 12.4657 0.357657C12.3651 0.294252 12.2399 0.243934 12.0909 0.206549C11.6956 0.117083 11.1921 0.0686863 10.5804 0.0611623C9.19308 0.0462709 8.30168 0.135854 7.90635 0.329795C7.74971 0.411736 7.60797 0.523696 7.48124 0.665321C7.34694 0.829479 7.32821 0.919063 7.42516 0.933797C7.87277 1.00085 8.18964 1.16124 8.37613 1.41483L8.44334 1.5492C8.49562 1.64615 8.54781 1.8178 8.60005 2.0639C8.65221 2.31 8.68587 2.58223 8.70069 2.88045C8.73792 3.42505 8.73792 3.89122 8.70069 4.27903C8.66334 4.66699 8.62807 4.96901 8.59441 5.18532C8.56075 5.40164 8.51043 5.57693 8.44334 5.71115C8.37613 5.8454 8.33142 5.92746 8.309 5.95725C8.28663 5.98703 8.26797 6.0058 8.25316 6.01317C8.15621 6.05032 8.05538 6.06924 7.95102 6.06924C7.84651 6.06924 7.71978 6.01697 7.57063 5.91249C7.42152 5.80802 7.26676 5.66451 7.10637 5.48174C6.94597 5.29893 6.76508 5.04346 6.56362 4.71531C6.36231 4.38715 6.15344 3.9993 5.93712 3.55178L5.75815 3.22723C5.64627 3.01843 5.49344 2.71441 5.2995 2.31544C5.10544 1.91631 4.93391 1.53024 4.7848 1.15728C4.7252 1.00065 4.63565 0.881403 4.51633 0.799344L4.46033 0.765681C4.4231 0.735898 4.36334 0.704274 4.28136 0.670572C4.19926 0.63691 4.11359 0.61277 4.02401 0.597918L0.958384 0.620177C0.645117 0.620177 0.432562 0.691146 0.320642 0.832888L0.27585 0.899938C0.253474 0.937284 0.242188 0.996929 0.242188 1.07903C0.242188 1.16109 0.264564 1.2618 0.309355 1.38105C0.756881 2.43285 1.24355 3.44723 1.76938 4.42434C2.2952 5.40144 2.75213 6.18853 3.13989 6.78489C3.52773 7.38168 3.92306 7.94493 4.32587 8.47436C4.72869 9.00398 4.99532 9.34339 5.12578 9.4925C5.25639 9.64188 5.35898 9.75357 5.43356 9.82814L5.71332 10.0966C5.89233 10.2757 6.1552 10.4901 6.50205 10.7399C6.84898 10.9899 7.23306 11.236 7.65449 11.4786C8.07599 11.7208 8.56635 11.9185 9.12584 12.0714C9.68524 12.2244 10.2297 12.2858 10.7593 12.2562H12.046C12.307 12.2336 12.5047 12.1516 12.6391 12.01L12.6836 11.9539C12.7135 11.9094 12.7415 11.8402 12.7674 11.7471C12.7936 11.6539 12.8066 11.5512 12.8066 11.4395C12.799 11.1188 12.8234 10.8298 12.8792 10.5725C12.9349 10.3152 12.9985 10.1213 13.0696 9.99069C13.1406 9.8602 13.2208 9.75008 13.31 9.66081C13.3995 9.57134 13.4632 9.51715 13.5006 9.49849C13.5377 9.47972 13.5674 9.46699 13.5898 9.45934C13.7688 9.3997 13.9794 9.45746 14.2221 9.63291C14.4646 9.8082 14.692 10.0246 14.9047 10.2819C15.1173 10.5393 15.3727 10.8282 15.671 11.1489C15.9695 11.4696 16.2305 11.7081 16.4542 11.865L16.6778 11.9992C16.8272 12.0888 17.0212 12.1709 17.2599 12.2454C17.4982 12.32 17.707 12.3386 17.8863 12.3014L20.7504 12.2567C21.0337 12.2567 21.2541 12.2098 21.4105 12.1167C21.5672 12.0235 21.6602 11.9208 21.6902 11.809C21.7202 11.6972 21.7218 11.5703 21.6959 11.4285C21.6694 11.2869 21.6433 11.188 21.6172 11.1321Z" fill="white"/>
</svg>