<svg xmlns="http://www.w3.org/2000/svg" width="21" height="21" viewBox="0 0 21 21" fill="none">
  <path d="M10.2637 0.554291C4.74967 0.554291 0.263672 4.96649 0.263672 10.3899C0.263672 12.0803 0.706972 13.7476 1.54577 15.2115C1.66887 15.4264 1.70117 15.6726 1.63677 15.9046C1.39187 16.7859 1.00407 18.1989 0.759372 19.0919C0.693372 19.3324 0.742072 19.5835 0.892572 19.781C1.04187 19.9768 1.27647 20.0936 1.52007 20.0936C1.58847 20.0936 1.65717 20.0846 1.72417 20.0669C2.67827 19.8156 4.40827 19.3638 5.27397 19.1614C5.34147 19.1456 5.41067 19.1376 5.47967 19.1376C5.61277 19.1376 5.74627 19.1681 5.86567 19.2256C7.24097 19.8891 8.72077 20.2255 10.2637 20.2255C15.7777 20.2255 20.2637 15.8133 20.2637 10.39C20.2637 4.96669 15.7777 0.554291 10.2637 0.554291ZM15.7653 14.4829C15.5221 15.1641 14.3567 15.7859 13.7961 15.8697C13.2934 15.9448 12.6575 15.9761 11.9587 15.7541C11.535 15.6197 10.9915 15.4403 10.2955 15.1397C7.36907 13.8765 5.45777 10.9308 5.31187 10.7361C5.16607 10.5415 4.12067 9.15469 4.12067 7.71929C4.12067 6.28389 4.87427 5.57829 5.14167 5.28629C5.40907 4.99439 5.72517 4.92129 5.91957 4.92129C6.11407 4.92129 6.30867 4.92309 6.47867 4.93159C6.65777 4.94049 6.89827 4.86359 7.13497 5.43229C7.37807 6.01619 7.96157 7.45159 8.03447 7.59769C8.10747 7.74359 8.15607 7.91389 8.05887 8.10859C7.96167 8.30319 7.91297 8.42489 7.76717 8.59519C7.62127 8.76549 7.46087 8.97549 7.32957 9.10609C7.18357 9.25159 7.03147 9.40929 7.20157 9.70129C7.37177 9.99329 7.95727 10.9484 8.82447 11.7217C9.93877 12.7152 10.8787 13.0232 11.1705 13.1692C11.4622 13.3152 11.6324 13.2908 11.8025 13.0962C11.9728 12.9015 12.5318 12.2446 12.7263 11.9527C12.9209 11.6608 13.1153 11.7094 13.3828 11.8067C13.6501 11.9041 15.0844 12.6095 15.3762 12.7555C15.6679 12.9016 15.8623 12.9746 15.9353 13.0962C16.0084 13.2178 16.0084 13.8017 15.7653 14.4829Z" fill="white"/>
</svg>