<svg xmlns="http://www.w3.org/2000/svg" width="18" height="24" viewBox="0 0 18 24" fill="none">
  <path d="M4.5 5.1521H17C17.2652 5.1521 17.5196 5.28328 17.7071 5.51677C17.8946 5.75027 18 6.06696 18 6.39717V21.9606C18 22.2908 17.8946 22.6075 17.7071 22.841C17.5196 23.0745 17.2652 23.2057 17 23.2057H10L4.5 5.1521Z" fill="white"/>
  <path d="M10.415 18.757L9.95703 17.6514L10.401 17.365C10.432 17.3463 13.452 15.3679 14.923 11.6974L15.146 11.1409L16.041 11.6974L15.817 12.254C14.197 16.298 10.995 18.386 10.859 18.4719L10.415 18.757Z" fill="#262626"/>
  <path d="M16.01 18.2256L15.574 17.9205C15.471 17.8483 13.028 16.1152 11.326 13.1482L12.14 12.4235C13.71 15.159 16.042 16.8199 16.065 16.8361L16.5 17.1424L16.01 18.2256ZM10 10.7551H17V12.0002H10V10.7551Z" fill="#262626"/>
  <path d="M13.5 18.8478H1C0.734784 18.8478 0.48043 18.7166 0.292893 18.4831C0.105357 18.2496 0 17.9329 0 17.6027V2.03926C0 1.70905 0.105357 1.39236 0.292893 1.15886C0.48043 0.925367 0.734784 0.794189 1 0.794189H8L13.5 18.8478Z" fill="#409FFF"/>
  <path d="M10 23.2057L8.5 18.8479H13.5L10 23.2057Z" fill="#0080FF"/>
  <path d="M6.586 12H4.406L3.902 13.8676H2.5L4.882 5.77466H6.104L8.5 13.8676H7.098L6.585 12H6.586ZM4.722 10.755H6.272L5.493 7.82032L4.722 10.755Z" fill="white"/>
</svg>